# xmcd CD database file
#
# Track frame offsets:
#	150
#	18875
#	35362
#	52155
#	67712
#	88932
#	94057
#	100040
#	116615
#	143920
#	160795
#	179205
#	195217
#	208607
#
# Disc length: 2815 seconds
#
# Revision: 2
# Processed by: cddbd v1.5.1PL0 Copyright (c) Steve Scherf et al.
# Submitted via: CDex 1.50beta10
#
DISCID=b80afd0e
DTITLE=SATOH MASAMI - Air
DYEAR=2004
DGENRE=Instrumental
TTITLE0=キスミレの咲く久住高原
TTITLE1=Air
TTITLE2=虹のスカイライン
TTITLE3=Forever You're Mine
TTITLE4=散歩道
TTITLE5=穂波のワルツ
TTITLE6=森を奏でる
TTITLE7=久住の思い出
TTITLE8=朝霧の久住高原
TTITLE9=浜辺の午後
TTITLE10=久住の花
TTITLE11=茸のダンス
TTITLE12=休日（やすみ）の朝
TTITLE13=エピローグ：散歩道
EXTD=\n YEAR: 2004
EXTT0=
EXTT1=
EXTT2=
EXTT3=
EXTT4=
EXTT5=
EXTT6=
EXTT7=
EXTT8=
EXTT9=
EXTT10=
EXTT11=
EXTT12=
EXTT13=
PLAYORDER=
